<svg xmlns="http://www.w3.org/2000/svg" xmlns:xlink="http://www.w3.org/1999/xlink" version="1.1" x="0px" y="0px" viewBox="0 0 32 40" enable-background="new 0 0 32 32" xml:space="preserve"><g><g><path d="M6.85,23.88c0.16,0.02,0.33,0.04,0.5,0.06l0.16-0.47L8,22h2l0.58,1.75l0.16,0.47    c0.17,0.01,0.35,0.02,0.53,0.03c1.31,0.06,2.73,0.1,4.23,0.11v-0.5V18c0-0.28,0.22-0.5,0.5-0.5s0.5,0.22,0.5,0.5v5.86v0.5    c1.5-0.01,2.92-0.05,4.23-0.11c0.18-0.01,0.36-0.02,0.53-0.03l0.16-0.47L22,22h2l0.49,1.47l0.16,0.47    c0.17-0.02,0.34-0.04,0.5-0.06c1.79-0.23,2.87-0.54,2.87-0.88c0-0.02-0.01-0.05-0.02-0.07V19c0-1.3-0.2-2.54-0.59-3.71    c-0.09,0.13-0.24,0.21-0.41,0.21h-0.04H21c-0.28,0-0.5-0.22-0.5-0.5c0-0.28,0.22-0.5,0.5-0.5h5.59H27c0.05,0,0.09,0.01,0.13,0.02    c-1.02-2.57-2.91-4.69-5.31-6.02l0.08,0.62L22,9.94c0.03,0.27-0.17,0.52-0.44,0.56H21.5c-0.25,0-0.46-0.19-0.5-0.44l-0.22-1.79    V8.22L20.56,6.5h-1.85l0.03,0.32c0.02,0.05,0.03,0.12,0.03,0.18c0,0.1-0.03,0.2-0.08,0.28l0.06,0.68l0.33,4    c0.02,0.27-0.18,0.52-0.46,0.54h-0.04c-0.26,0-0.48-0.2-0.5-0.46l-0.33-3.98V8.04V8l-0.17-1.31h0.12L17.68,6.5h-0.06l-0.08-1    h-3.08l-0.08,1h-0.06L14.3,6.69h0.12L14.25,8v0.04v0.02l-0.33,3.98c-0.02,0.26-0.24,0.46-0.5,0.46h-0.04    c-0.28-0.02-0.48-0.27-0.46-0.54l0.33-4l0.06-0.73c-0.05-0.08-0.07-0.17-0.06-0.27l0.04-0.46h-1.85l-0.22,1.71v0.06L11,10.06    c-0.03,0.25-0.25,0.44-0.5,0.44h-0.06c-0.27-0.04-0.47-0.29-0.44-0.56l0.1-0.82l0.08-0.62c-2.4,1.33-4.29,3.45-5.31,6.02    C4.91,14.51,4.95,14.5,5,14.5h0.41H11c0.28,0,0.5,0.22,0.5,0.5c0,0.28-0.22,0.5-0.5,0.5H5.04H5c-0.17,0-0.32-0.08-0.41-0.21    C4.2,16.46,4,17.7,4,19v3.93C3.99,22.95,3.98,22.98,3.98,23C3.98,23.34,5.06,23.65,6.85,23.88z"/><path d="M28.51,21.26L28.52,23c0,0.58-0.56,1.01-3.21,1.37c-0.19,0.02-0.39,0.05-0.6,0.07l-0.4,0.04H24.3    l-0.66-1.98h-1.28l-0.63,1.88l-0.11,0.32l-0.33,0.02c-0.24,0.01-0.48,0.03-0.73,0.03c-1.45,0.07-2.98,0.11-4.56,0.11    s-3.11-0.04-4.56-0.11c-0.25,0-0.49-0.02-0.73-0.03l-0.33-0.02l-0.11-0.32L9.64,22.5H8.36L7.7,24.48H7.69l-0.4-0.04    c-0.21-0.02-0.41-0.05-0.6-0.07C4.04,24.01,3.48,23.58,3.48,23l0.01-1.74L2,22l4,8c0.5-0.45,4.48-1.69,10-1.69s9.22,1.13,10,1.69    l4-8L28.51,21.26z"/></g></g><text x="0" y="47" fill="#000000" font-size="5px" font-weight="bold" font-family="'Helvetica Neue', Helvetica, Arial-Unicode, Arial, Sans-serif">Created by Firza Alamsyah</text><text x="0" y="52" fill="#000000" font-size="5px" font-weight="bold" font-family="'Helvetica Neue', Helvetica, Arial-Unicode, Arial, Sans-serif">from the Noun Project</text></svg>